HIERARCHY
ROOT Hips
{
	OFFSET 0.000000 0.000000 0.000000
	CHANNELS 6 Xposition Yposition Zposition Zrotation Yrotation Xrotation 
	JOINT LHipJoint
	{
		OFFSET 0.000000 0.000000 0.000000
		CHANNELS 3 Zrotation Yrotation Xrotation
		JOINT LeftUpLeg
		{
			OFFSET 1.363060 -1.794630 0.839290
			CHANNELS 3 Zrotation Yrotation Xrotation
			JOINT LeftLeg
			{
				OFFSET 2.448110 -6.726130 0.000000
				CHANNELS 3 Zrotation Yrotation Xrotation
				JOINT LeftFoot
				{
					OFFSET 2.562200 -7.039590 0.000000
					CHANNELS 3 Zrotation Yrotation Xrotation
					JOINT LeftToeBase
					{
						OFFSET 0.157640 -0.433110 2.322550
						CHANNELS 3 Zrotation Yrotation Xrotation
						End Site
						{
							OFFSET 0.000000 0.000000 0.000000
						}
					}
				}
			}
		}
	}
	JOINT RHipJoint
	{
		OFFSET 0.000000 0.000000 0.000000
		CHANNELS 3 Zrotation Yrotation Xrotation
		JOINT RightUpLeg
		{
			OFFSET -1.305520 -1.794630 0.839290
			CHANNELS 3 Zrotation Yrotation Xrotation
			JOINT RightLeg
			{
				OFFSET -2.542530 -6.985550 0.000000
				CHANNELS 3 Zrotation Yrotation Xrotation
				JOINT RightFoot
				{
					OFFSET -2.568260 -7.056230 0.000000
					CHANNELS 3 Zrotation Yrotation Xrotation
					JOINT RightToeBase
					{
						OFFSET -0.164730 -0.452590 2.363150
						CHANNELS 3 Zrotation Yrotation Xrotation
						End Site
						{
							OFFSET 0.000000 0.000000 0.000000
						}
					}
				}
			}
		}
	}
	JOINT LowerBack
	{
		OFFSET 0.000000 0.000000 0.000000
		CHANNELS 3 Zrotation Yrotation Xrotation
		JOINT Spine
		{
			OFFSET 0.028270 2.035590 -0.193380
			CHANNELS 3 Zrotation Yrotation Xrotation
			JOINT Spine1
			{
				OFFSET 0.056720 2.048850 -0.042750
				CHANNELS 3 Zrotation Yrotation Xrotation
				JOINT Neck
				{
					OFFSET 0.000000 0.000000 0.000000
					CHANNELS 3 Zrotation Yrotation Xrotation
					JOINT Neck1
					{
						OFFSET -0.054170 1.746240 0.172020
						CHANNELS 3 Zrotation Yrotation Xrotation
						JOINT Head
						{
							OFFSET 0.104070 1.761360 -0.123970
							CHANNELS 3 Zrotation Yrotation Xrotation
							End Site
							{
								OFFSET 0.000000 0.000000 0.000000
							}
						}
					}
				}
				JOINT LeftShoulder
				{
					OFFSET 0.000000 0.000000 0.000000
					CHANNELS 3 Zrotation Yrotation Xrotation
					JOINT LeftArm
					{
						OFFSET 3.362410 1.200890 -0.311210
						CHANNELS 3 Zrotation Yrotation Xrotation
						JOINT LeftForeArm
						{
							OFFSET 4.983000 -0.000000 -0.000000
							CHANNELS 3 Zrotation Yrotation Xrotation
							JOINT LeftHand
							{
								OFFSET 3.483560 -0.000000 -0.000000
								CHANNELS 3 Zrotation Yrotation Xrotation
								JOINT LeftFingerBase
								{
									OFFSET 0.000000 0.000000 0.000000
									CHANNELS 3 Zrotation Yrotation Xrotation
									JOINT LeftHandIndex1
									{
										OFFSET 0.715260 -0.000000 -0.000000
										CHANNELS 3 Zrotation Yrotation Xrotation
										End Site
										{
											OFFSET 0.000000 0.000000 0.000000
										}
									}
								}
								JOINT LThumb
								{
									OFFSET 0.000000 0.000000 0.000000
									CHANNELS 3 Zrotation Yrotation Xrotation
									End Site
									{
										OFFSET 0.000000 0.000000 0.000000
									}
								}
							}
						}
					}
				}
				JOINT RightShoulder
				{
					OFFSET 0.000000 0.000000 0.000000
					CHANNELS 3 Zrotation Yrotation Xrotation
					JOINT RightArm
					{
						OFFSET -3.136600 1.374050 -0.404650
						CHANNELS 3 Zrotation Yrotation Xrotation
						JOINT RightForeArm
						{
							OFFSET -5.241900 -0.000000 -0.000000
							CHANNELS 3 Zrotation Yrotation Xrotation
							JOINT RightHand
							{
								OFFSET -3.444170 -0.000000 -0.000000
								CHANNELS 3 Zrotation Yrotation Xrotation
								JOINT RightFingerBase
								{
									OFFSET 0.000000 0.000000 0.000000
									CHANNELS 3 Zrotation Yrotation Xrotation
									JOINT RightHandIndex1
									{
										OFFSET -0.622530 -0.000000 -0.000000
										CHANNELS 3 Zrotation Yrotation Xrotation
										End Site
										{
											OFFSET 0.000000 0.000000 0.000000
										}
									}
								}
								JOINT RThumb
								{
									OFFSET 0.000000 0.000000 0.000000
									CHANNELS 3 Zrotation Yrotation Xrotation
									End Site
									{
										OFFSET 0.000000 0.000000 0.000000
									}
								}
							}
						}
					}
				}
			}
		}
	}
}
MOTION
Frames: 5
Frame Time: 0.008333
17.312842 18.379969 21.027469 175.507611 -1.663959 -151.868433 22.465294 5.550536 -0.156313 -48.285118 -24.389035 -16.953267 2.604131 5.591332 13.815709 -1.971187 -14.550103 -30.910985 0.025400 -1.028700 -2.827800 -26.939140 -7.594255 -1.145679 47.491210 18.733450 -14.909128 -3.242520 -3.635388 9.500632 -0.209321 12.681484 -35.320954 -0.000100 -0.075300 0.206800 -6.972498 -1.248128 -29.651939 2.601312 -0.602281 -7.239146 0.887388 -2.008827 19.882277 -9.590919 -1.034204 -3.304422 10.485583 -3.436670 20.565024 1.069300 -0.647200 4.737000 16.798501 -2.910741 1.145528 -109.185384 -3.889561 18.923599 15.994387 -16.025040 -2.170391 -0.511765 0.368829 4.125625 21.487200 -11.880522 -4.884300 -7.125000 0.000000 0.000000 -3.612300 16.871700 2.413200 -11.378095 1.697016 1.048651 102.049845 -2.645575 3.617587 -19.600829 29.096183 -4.615739 0.046604 -0.354377 -2.228143 -10.053251 -53.675160 8.118600 7.125000 0.000000 0.000000 68.757100 -75.090600 -53.785000 
17.311106 18.378438 21.023896 175.565396 -1.622480 -151.820153 22.474072 5.553414 -0.203173 -48.247405 -24.300214 -16.973058 2.602891 5.596427 13.797414 -1.866706 -14.295170 -30.936268 0.044900 -1.367000 -3.759300 -26.949570 -7.552446 -1.051794 47.482384 19.129435 -15.056786 -3.226877 -3.743627 9.734325 -0.210603 12.537787 -35.250880 -0.010500 -0.661800 1.818700 -6.902212 -1.207445 -29.763960 2.601930 -0.570917 -7.235968 0.863938 -1.991649 19.957360 -9.558231 -0.937235 -3.129264 10.472299 -3.309196 20.101763 1.062800 -0.608800 4.614600 16.802048 -2.936536 1.133970 -109.169511 -3.940119 19.051968 15.977204 -16.000853 -2.164892 -0.520751 0.369540 4.155565 21.700630 -11.873182 -4.935500 -7.125000 0.000000 0.000000 -3.457100 16.859200 2.310100 -11.386735 1.665547 1.033049 102.098786 -2.568084 3.476831 -19.583638 29.077165 -4.608296 0.050283 -0.358294 -2.022977 -9.232720 -53.196526 7.411500 7.125000 0.000000 0.000000 67.397700 -74.642700 -52.044300 
17.308452 18.378846 21.018587 175.603237 -1.534162 -151.963356 22.473074 5.555328 -0.216555 -48.296225 -24.169833 -16.763011 2.601225 5.560453 13.724599 -1.764371 -14.098662 -31.005902 0.048200 -1.416500 -3.895500 -26.947258 -7.553800 -1.080516 47.543593 19.034214 -14.870899 -3.234249 -3.717351 9.725090 -0.154310 12.656123 -35.067623 -0.021200 -0.940300 2.584600 -6.835769 -1.195560 -29.735586 2.634120 -0.561583 -7.124081 0.833041 -1.976857 20.013393 -9.612085 -0.846420 -3.191066 10.483628 -3.152393 19.878466 1.085300 -0.540600 4.586300 16.794576 -2.934034 1.123832 -109.224605 -4.009638 18.957289 15.991255 -16.036796 -2.169182 -0.519832 0.361400 4.301102 21.694781 -11.657360 -4.844500 -7.125000 0.000000 0.000000 -3.452300 17.100700 2.288700 -11.395742 1.655561 1.018931 102.072534 -2.414898 3.444753 -19.532703 29.014771 -4.584090 0.051554 -0.361560 -1.979856 -8.918297 -52.614927 7.104600 7.125000 0.000000 0.000000 65.538600 -74.334900 -50.023100 
17.308452 18.377008 21.018791 175.642672 -1.523441 -151.978419 22.471765 5.559580 -0.231949 -48.251238 -24.110944 -16.779726 2.607156 5.568274 13.754058 -1.784541 -14.137927 -30.989333 0.040300 -1.296400 -3.564800 -26.946857 -7.552510 -1.069511 47.584156 19.075258 -14.864279 -3.228302 -3.727507 9.742196 -0.162311 12.606681 -35.042212 -0.017500 -0.853700 2.346400 -6.800266 -1.151937 -29.715294 2.608874 -0.526125 -7.150919 0.805851 -1.952762 19.993407 -9.717090 -0.641615 -3.092372 10.707627 -2.925192 19.549239 1.161400 -0.433600 4.507600 16.803735 -2.953725 1.120854 -109.182240 -4.020309 19.080435 15.986802 -16.032193 -2.168629 -0.520365 0.357103 4.278943 21.701781 -11.564124 -4.807600 -7.125000 0.000000 0.000000 -3.443500 17.204000 2.275100 -11.389358 1.631014 1.013331 102.120244 -2.448522 3.433783 -19.541834 29.024026 -4.587390 0.050886 -0.359473 -2.079167 -9.083431 -52.807395 7.254200 7.125000 0.000000 0.000000 66.116700 -74.461800 -50.683400 
17.304572 18.378131 21.012972 175.691938 -1.486541 -152.233376 22.464856 5.551637 -0.208252 -48.291685 -24.036409 -16.451432 2.610464 5.511162 13.677034 -1.762813 -14.159862 -31.063020 0.023300 -0.984600 -2.706500 -26.926100 -7.605417 -1.215485 47.743215 18.495770 -14.426022 -3.245290 -3.578209 9.487888 -0.111130 12.891647 -34.939976 -0.009200 -0.619700 1.702800 -6.702039 -1.092340 -29.559425 2.609827 -0.478425 -7.060706 0.751796 -1.904302 19.997125 -9.870512 -0.505425 -3.016591 10.915302 -2.779719 19.253684 1.234500 -0.368900 4.438500 16.810145 -2.961090 1.111438 -109.158396 -4.047869 19.236018 15.990534 -16.044548 -2.172165 -0.523016 0.352934 4.149900 21.731253 -11.528365 -4.799400 -7.125000 0.000000 0.000000 -3.420200 17.243100 2.256700 -11.388095 1.612267 1.004087 102.120406 -2.498314 3.524542 -19.579479 29.068292 -4.604192 0.049769 -0.357089 -2.143476 -9.355574 -52.922557 7.482400 7.125000 0.000000 0.000000 66.385000 -74.601900 -51.080400 
